<?xml version='1.0' encoding='iso-8859-1'?>
<svg version="1.1" xmlns="http://www.w3.org/2000/svg" viewBox="0 0 463 463" xmlns:xlink="http://www.w3.org/1999/xlink" enable-background="new 0 0 463 463">
  <g>
    <path d="m461.245,126.679c-1.425-1.698-3.528-2.679-5.745-2.679h-277.963l-3.005-15.486c-1.918-9.878-10.166-16.514-20.526-16.514h-20.864c-4.142,0-7.5,3.358-7.5,7.5s3.358,7.5 7.5,7.5h20.864c3.101,0 5.269,1.634 5.8,4.372l33.808,174.228c1.319,6.796 3.981,12.908 7.704,18.134l-10.437,8.872c-4.499-3.002-9.924-4.606-15.825-4.606-16.987,0-32.632,13.265-35.618,30.198-1.512,8.575 0.597,17.04 5.786,23.224 5.183,6.177 12.771,9.579 21.368,9.579 16.987,0 32.632-13.264 35.618-30.198 1.027-5.825 0.379-11.596-1.766-16.639l11.559-9.827c7.869,5.527 17.656,8.663 28.461,8.663h121.652c-3.329,4.44-5.694,9.617-6.678,15.198-1.512,8.575 0.597,17.04 5.786,23.224 5.183,6.177 12.771,9.579 21.368,9.579 16.987,0 32.632-13.264 35.618-30.198 1.512-8.575-0.597-17.04-5.787-23.224-5.183-6.176-12.771-9.578-21.368-9.578h-150.591c-16.538,0-29.148-9.914-32.125-25.258l-1.502-7.743h192.683c21.473,0 41.252-16.778 45.029-38.198l18.338-104c0.384-2.183-0.217-4.424-1.642-6.123zm-60.312,200.541c2.366,2.82 3.256,6.718 2.505,10.978-1.702,9.65-11.248,17.802-20.846,17.802-4.086,0-7.594-1.499-9.877-4.22-2.366-2.82-3.256-6.718-2.504-10.978 1.701-9.65 11.247-17.802 20.845-17.802 4.086,5.68434e-14 7.594,1.499 9.877,4.22zm-213.495,10.978c-1.702,9.65-11.248,17.802-20.846,17.802-4.086,0-7.594-1.499-9.877-4.22-2.366-2.82-3.256-6.718-2.504-10.978 1.701-9.65 11.247-17.802 20.845-17.802 4.086,0 7.594,1.499 9.877,4.22 2.366,2.82 3.256,6.719 2.505,10.978zm242.338-104c-2.466,13.986-16.322,25.802-30.256,25.802h-195.594l-23.479-121h266.115l-16.786,95.198z"/>
    <path d="m323.86,242.886c0.44,0.078 0.878,0.115 1.311,0.115 3.571,0 6.736-2.561 7.377-6.199l12.695-72c0.719-4.079-2.005-7.969-6.084-8.688-4.075-0.716-7.969,2.004-8.688,6.084l-12.695,72c-0.719,4.079 2.005,7.969 6.084,8.688z"/>
    <path d="m355.86,242.886c0.44,0.078 0.878,0.115 1.311,0.115 3.571,0 6.736-2.561 7.377-6.199l12.695-72c0.719-4.079-2.005-7.969-6.084-8.688-4.075-0.716-7.969,2.004-8.688,6.084l-12.695,72c-0.719,4.079 2.005,7.969 6.084,8.688z"/>
    <path d="m387.86,242.886c0.44,0.078 0.878,0.115 1.311,0.115 3.571,0 6.736-2.561 7.377-6.199l12.695-72c0.719-4.079-2.005-7.969-6.084-8.688-4.075-0.716-7.969,2.004-8.688,6.084l-12.695,72c-0.719,4.079 2.005,7.969 6.084,8.688z"/>
    <path d="m227.86,242.886c0.44,0.078 0.878,0.115 1.311,0.115 3.571,0 6.736-2.561 7.377-6.199l12.695-72c0.719-4.079-2.005-7.969-6.084-8.688-4.076-0.716-7.969,2.004-8.688,6.084l-12.695,72c-0.719,4.079 2.005,7.969 6.084,8.688z"/>
    <path d="m259.86,242.886c0.44,0.078 0.878,0.115 1.311,0.115 3.571,0 6.736-2.561 7.377-6.199l12.695-72c0.719-4.079-2.005-7.969-6.084-8.688-4.076-0.716-7.969,2.004-8.688,6.084l-12.695,72c-0.719,4.079 2.005,7.969 6.084,8.688z"/>
    <path d="m291.86,242.886c0.44,0.078 0.878,0.115 1.311,0.115 3.571,0 6.736-2.561 7.377-6.199l12.695-72c0.719-4.079-2.005-7.969-6.084-8.688-4.076-0.716-7.969,2.004-8.688,6.084l-12.695,72c-0.719,4.079 2.005,7.969 6.084,8.688z"/>
    <path d="m151,187.5c0-4.142-3.358-7.5-7.5-7.5h-112c-4.142,0-7.5,3.358-7.5,7.5s3.358,7.5 7.5,7.5h112c4.142,0 7.5-3.358 7.5-7.5z"/>
    <path d="m167,283.5c0-4.142-3.358-7.5-7.5-7.5h-80c-4.142,0-7.5,3.358-7.5,7.5s3.358,7.5 7.5,7.5h80c4.142,0 7.5-3.358 7.5-7.5z"/>
    <path d="m159,235.5c0-4.142-3.358-7.5-7.5-7.5h-96c-4.142,0-7.5,3.358-7.5,7.5s3.358,7.5 7.5,7.5h96c4.142,0 7.5-3.358 7.5-7.5z"/>
    <path d="m143,139.5c0-4.142-3.358-7.5-7.5-7.5h-128c-4.142,0-7.5,3.358-7.5,7.5s3.358,7.5 7.5,7.5h128c4.142,0 7.5-3.358 7.5-7.5z"/>
  </g>
</svg>
